<svg
  role="img"
  width="489.333"
  height="660"
  aria-labelledby="loading-aria"
  viewBox="0 0 489.333 660"
  preserveAspectRatio="none"
  style="transform: scaleX(-1)"
>
  <title id="loading-aria">Loading...</title>
  <rect
    x="0"
    y="0"
    width="100%"
    height="100%"
    clip-path="url(#clip-path)"
    style='fill: url("#fill");'
  ></rect>
  <defs>
    <clipPath id="clip-path">
        <path d="M 0 247.5 V 495 h 367 V 0 H 0 v 247.5 z M 321.1 8.6 c 12.6 3.8 22.4 11.4 28.7 22.5 c 6 10.6 6.2 12.6 6.2 63.1 c 0 43.4 -0.1 45.8 -1.8 45.8 c -1 0 -2.2 -0.4 -2.8 -0.8 c -1 -0.9 -7.6 -3 -10.9 -3.4 c -1.2 -0.2 -2.1 -1.2 -2.3 -2.6 c -0.5 -3 -3.9 -3 -4.4 0 c -0.2 1.6 -0.9 2.2 -2.3 2.1 c -4.7 -0.5 -7.8 -1.7 -11.1 -4.7 c -3.1 -2.7 -8.4 -4.3 -8.4 -2.5 c 0 0.3 -1.3 0.6 -2.9 0.5 c -1.6 -0.1 -2.7 -0.5 -2.4 -1 c 0.3 -0.5 -0.6 -0.7 -2 -0.4 c -1.6 0.3 -3.1 0 -3.8 -0.9 c -0.9 -1.1 -0.8 -1.2 0.5 -0.7 c 1.2 0.5 1.5 0.2 1 -0.9 c -0.4 -1.2 -1.4 -1.5 -3.5 -1 c -1.6 0.3 -2.9 0.2 -2.9 -0.3 s -0.9 -1.5 -2 -2.2 c -1.8 -1.1 -2.5 -1 -5 0.8 c -1.7 1.2 -3 1.7 -3 1.2 c 0 -0.6 0.6 -1.3 1.3 -1.5 c 0.8 -0.3 0.2 -1.4 -1.7 -2.9 c -2.4 -2.1 -3.3 -2.3 -5.2 -1.4 c -1.9 0.9 -2.2 1.8 -2 4.6 c 0.2 1.9 1 4.9 1.9 6.6 c 3.9 7.5 8.7 28.3 8.7 37.5 v 3.9 h 67 l -0.2 140.3 l -0.3 140.4 l -4.3 8.7 c -6.9 13.9 -18.3 23.3 -32.2 26.5 c -6.2 1.4 -265.8 1.4 -272 0 c -13.9 -3.2 -25.3 -12.6 -32.2 -26.5 l -4.3 -8.7 l -0.3 -140.4 L 10 170 H 76.7 l 0.8 -8.2 c 1.8 -21.1 11.2 -43.8 24.8 -60.1 c 3.8 -4.6 3.9 -4.8 2.2 -6.7 c -2 -2.2 -1.4 -2.5 1.6 -0.9 c 1.7 0.9 2.9 0.3 7.7 -3.9 c 3.1 -2.6 7.3 -5.9 9.2 -7.2 c 1.9 -1.4 4.1 -3 4.8 -3.7 c 1.5 -1.4 0.7 -3.5 -1.1 -3.1 c -2.1 0.3 -8.7 -3.5 -9.2 -5.3 c -1 -3.1 -6.4 -7 -8.3 -6 c -0.9 0.5 -3.9 0.9 -6.7 1 c -3.2 0 -5.4 0.6 -6.1 1.6 c -1.4 1.9 -2 1.9 -2.8 0 c -0.3 -0.8 0 -1.4 0.7 -1.2 c 0.7 0.1 1.1 -0.7 0.9 -2 c -0.2 -1.7 0.1 -2 1.8 -1.6 c 1.1 0.3 2 0.9 2 1.4 c 0 0.5 0.4 0.9 0.8 0.9 c 1 0 3.2 -5.7 2.4 -6.4 c -1 -1 -3.5 -0.6 -5.1 0.8 c -1.9 1.7 -6.1 0.4 -6.1 -1.8 c 0 -0.9 -0.6 -1.3 -1.4 -1 c -0.8 0.3 -1.7 0.1 -2.1 -0.5 c -0.3 -0.6 -1.5 -1.1 -2.6 -1.1 c -1 0 -1.9 -0.5 -1.9 -1 c 0 -0.6 -0.7 -1 -1.5 -1 s -1.5 0.4 -1.5 1 c 0 0.5 -0.5 1 -1.1 1 c -0.5 0 -0.7 -0.4 -0.4 -1 c 0.3 -0.5 0 -0.7 -0.8 -0.4 c -1.8 0.6 -3.2 -1.2 -1.7 -2.1 c 1.6 -1 1.2 -3.5 -0.6 -3.5 c -0.8 0 -2.7 -1.4 -4.1 -3.1 c -1.5 -1.8 -3.2 -2.8 -4 -2.5 c -0.8 0.3 -2.4 0 -3.5 -0.8 c -1.8 -1.3 -2.4 -1.3 -4.5 0.1 c -1.3 0.9 -2.2 2.2 -1.9 2.9 c 0.3 0.9 -0.6 1.1 -3.5 0.8 c -3.2 -0.4 -3.9 -0.2 -3.9 1.3 c 0 1.2 -0.3 1.4 -1.1 0.6 c -1.3 -1.3 -0.2 -5.6 1.2 -4.8 c 0.5 0.3 2.5 -1 4.4 -3 c 3.4 -3.3 3.5 -3.7 1.9 -5.2 c -1.3 -1.3 -2 -1.4 -3.5 -0.5 c -1.5 1 -1.9 0.9 -1.9 0 c 0 -0.7 -1.1 0.1 -2.5 1.9 c -1.8 2.3 -3.1 3 -4.6 2.6 c -1.8 -0.5 -2 -0.3 -1.5 1.8 c 0.6 2 0.5 2.1 -0.4 0.6 c -0.6 -0.9 -2.2 -1.7 -3.6 -1.7 s -2.3 -0.4 -2 -0.8 c 0.3 -0.5 -0.7 -1.5 -2.2 -2.3 c -1.5 -0.8 -2.9 -1.6 -3.2 -1.9 c -1.7 -1.8 -6.5 -4.2 -9.2 -4.5 c -1.6 -0.2 -3.2 -0.6 -3.5 -0.9 c -0.9 -0.9 11 -12.7 15.5 -15.3 c 2.4 -1.4 6.9 -3.4 10 -4.4 c 5.4 -1.7 12.8 -1.8 138.8 -1.8 c 119.5 -0.1 133.6 0.1 138.5 1.5 z M 25.2 80.9 c -0.2 1 0.6 1.2 3.3 0.8 c 3.6 -0.6 4.4 0 2.3 2.1 c -0.7 0.7 -0.9 1.2 -0.5 1.2 s 0.3 0.9 -0.3 2.1 c -1.5 2.8 -0.3 8.2 1.7 7.5 c 0.8 -0.3 2.1 0 2.8 0.7 c 1.1 1.2 1 1.6 -0.6 2.8 c -2.5 1.8 -1.7 4.1 3.9 10.7 c 2.5 2.9 4.2 5.5 3.9 5.9 c -0.4 0.3 0.2 1.3 1.2 2.2 c 1 0.9 1.8 2.3 1.9 3.1 c 0.2 3.2 0.9 5.1 2.2 6.3 c 1.2 1 1.2 0.9 0.1 -0.6 c -0.8 -1 -0.9 -1.7 -0.3 -1.7 c 0.6 0 1.3 0.6 1.5 1.2 c 0.4 1 0.8 0.9 1.6 -0.2 c 0.6 -0.8 1.1 -1 1.1 -0.5 c 0 0.6 -0.9 1.8 -1.9 2.7 c -1.8 1.5 -2.1 1.5 -4 -0.3 c -1.1 -1.1 -1.8 -2.6 -1.5 -3.4 c 0.4 -0.8 0.1 -1.5 -0.5 -1.5 s -1.1 0.5 -1.1 1.1 c 0 1.9 -3.8 -3.5 -4.5 -6.4 c -0.4 -1.4 -1.4 -2.9 -2.4 -3.2 c -0.9 -0.2 -2.7 -2.5 -4.1 -5 c -1.3 -2.5 -2.9 -4.4 -3.5 -4.3 c -2.3 0.3 -7.5 -3 -7.5 -4.8 c 0 -1 -7 -7.4 -8 -7.4 c -2.2 0 -1.7 -3.3 0.7 -5.6 c 2.1 -2 2.3 -2.4 0.7 -1.9 c -1 0.4 -0.1 -0.3 2.1 -1.5 c 2.2 -1.1 4.4 -2.5 5 -3.1 c 1.4 -1.4 5.1 -0.6 4.7 1 z" /> 
        <path d="M 169 75.2 c -9.1 1.3 -24.5 6.7 -33.5 11.9 c -31.2 17.8 -50.1 52.2 -48.2 87.5 c 3.7 67.6 72.4 110 134.6 83.1 c 44.4 -19.2 67.6 -71.8 52 -117.9 c -14.8 -43.7 -59.2 -71.1 -104.9 -64.6 z M 103 304.9 v 8.1 h 3.9 c 5.3 0 9.4 -3.5 9.4 -7.9 s -2.8 -6.9 -8.6 -7.7 l -4.7 -0.7 v 8.2 z M 192.3 298 c -7.3 2.9 -4.7 15.1 3.3 15 c 7.8 -0.1 10.7 -9.9 4.2 -14.4 c -2.5 -1.8 -4.2 -1.9 -7.5 -0.6 z M 228 304.9 v 8.1 h 3.5 c 6.1 0 10.5 -3.5 10.5 -8.5 c 0 -3.1 -4.4 -6.5 -9.2 -7.1 l -4.8 -0.7 v 8.2 z M 141.5 436.4 c -13.3 5.9 -9.5 25.6 4.9 25.6 c 14.6 0 18.9 -20 5.6 -25.4 c -4.8 -1.9 -6.5 -1.9 -10.5 -0.2 z M 213.3 436.6 c -9.4 4.6 -9.6 19.1 -0.4 23.9 c 9.2 4.7 20.1 -1.7 20.1 -12 c 0 -10.1 -10.5 -16.4 -19.7 -11.9 z" />
    </clipPath>
    <linearGradient id="fill">
      <stop
        offset="0.599964"
        stop-color="#f3f3f3"
        stop-opacity="1"
      >
        <animate
          attributeName="offset"
          values="-2; -2; 1"
          keyTimes="0; 0.25; 1"
          dur="2s"
          repeatCount="indefinite"
        ></animate>
      </stop>
      <stop
        offset="1.59996"
        stop-color="#ecebeb"
        stop-opacity="1"
      >
        <animate
          attributeName="offset"
          values="-1; -1; 2"
          keyTimes="0; 0.25; 1"
          dur="2s"
          repeatCount="indefinite"
        ></animate>
      </stop>
      <stop
        offset="2.59996"
        stop-color="#f3f3f3"
        stop-opacity="1"
      >
        <animate
          attributeName="offset"
          values="0; 0; 3"
          keyTimes="0; 0.25; 1"
          dur="2s"
          repeatCount="indefinite"
        ></animate>
      </stop>
    </linearGradient>
  </defs>
</svg>